Coordinates
version=1
nRows=22
nColumns=24
inDegrees=yes

Units are S.I. units (second, meters, Newtons, ...)
Angles are in degrees.

endheader
time	torso_tilt	torso_list	torso_rotation	torso_tx	torso_ty	torso_tz	lumbar_extension	lumbar_bending	lumbar_rotation	hip_flexion_r	hip_adduction_r	hip_rotation_r	knee_angle_r	ankle_angle_r	subtalar_angle_r	mtp_angle_r	hip_flexion_l	hip_adduction_l	hip_rotation_l	knee_angle_l	ankle_angle_l	subtalar_angle_l	mtp_angle_l
     41.43000000	     -7.42077651	      1.30476947	     -4.06577419	      0.13178955	      1.00634376	      0.00996262	      5.50569629	     -0.44498533	      5.14224083	     -2.14783183	     -3.40981813	     -6.70513723	     -2.96141589	      6.75111884	     -6.16515625	      0.00000000	     -0.82736998	     -3.26041540	     -0.69546816	     -3.45970283	      6.43941851	     -5.82317535	      0.00000000
     41.44000000	     -7.40523412	      1.29228046	     -4.05288542	      0.13176991	      1.00629556	      0.00992917	      5.43343075	     -0.43467983	      5.12475815	     -2.10630880	     -3.41642488	     -6.72151246	     -2.90755617	      6.75167534	     -6.15078469	      0.00000000	     -0.78992314	     -3.25057927	     -0.73353925	     -3.40106502	      6.44382125	     -5.80901828	      0.00000000
     41.45000000	     -7.39753212	      1.28322499	     -4.03776753	      0.13172324	      1.00623559	      0.00987073	      5.35401251	     -0.43510521	      5.09395471	     -2.03238092	     -3.41787561	     -6.73796154	     -2.87286723	      6.74193345	     -6.12324096	      0.00000000	     -0.74187040	     -3.25073682	     -0.76457842	     -3.33281067	      6.43888058	     -5.77914762	      0.00000000
     41.46000000	     -7.39717378	      1.27806967	     -4.01476034	      0.13171319	      1.00634149	      0.00979462	      5.27129940	     -0.45534839	      5.05524444	     -1.93409173	     -3.40522693	     -6.78250587	     -2.85451254	      6.68220922	     -6.07617760	      0.00000000	     -0.64546025	     -3.26588670	     -0.80924359	     -3.32417152	      6.39203095	     -5.75516699	      0.00000000
     41.47000000	     -7.42592864	      1.27235259	     -4.01067785	      0.13152180	      1.00630192	      0.00973775	      5.28597471	     -0.45439984	      5.05434385	     -1.91473282	     -3.40419462	     -6.78336865	     -2.83638604	      6.68510772	     -6.07448729	      0.00000000	     -0.62833104	     -3.26776482	     -0.80706391	     -3.30191460	      6.39715887	     -5.75489881	      0.00000000
     41.48000000	     -7.44480519	      1.27019666	     -3.96576418	      0.13136751	      1.00615539	      0.00964134	      5.28919388	     -0.47607697	      5.00609850	     -1.91195565	     -3.38177133	     -6.80021832	     -2.78186567	      6.70890050	     -6.06669190	      0.00000000	     -0.63905742	     -3.28427549	     -0.73439301	     -3.23358679	      6.44559189	     -5.78976070	      0.00000000
     41.49000000	     -7.49722776	      1.26609583	     -3.92390158	      0.13114542	      1.00613775	      0.00956417	      5.37642250	     -0.47760157	      5.00169235	     -1.97874345	     -3.37668607	     -6.91290733	     -2.70499126	      6.65035548	     -5.99102461	      0.00000000	     -0.67816295	     -3.28742692	     -0.62617650	     -3.20094951	      6.43362301	     -5.87274264	      0.00000000
     41.50000000	     -7.53500290	      1.27109480	     -3.92566780	      0.13104409	      1.00610983	      0.00947633	      5.41121573	     -0.48790515	      4.99595800	     -2.00461447	     -3.37322654	     -6.90357071	     -2.62434784	      6.64765208	     -5.95698657	      0.00000000	     -0.69330982	     -3.29165872	     -0.55370886	     -3.15800208	      6.41598841	     -5.90920066	      0.00000000
     41.51000000	     -7.60894371	      1.24731581	     -3.90165981	      0.13073197	      1.00606248	      0.00955784	      5.44835556	     -0.46815250	      5.06381195	     -1.96997861	     -3.35975433	     -7.02143235	     -2.60115603	      6.64829056	     -5.98313990	      0.00000000	     -0.64343010	     -3.29559811	     -0.65959270	     -3.08744382	      6.36764028	     -5.87174501	      0.00000000
     41.52000000	     -7.66139001	      1.23167951	     -3.90093583	      0.13049874	      1.00606334	      0.00966135	      5.39737299	     -0.47162108	      5.15840888	     -1.85485018	     -3.33591063	     -7.07554504	     -2.58496171	      6.62633185	     -5.99425192	      0.00000000	     -0.47343106	     -3.31847584	     -0.85217357	     -3.10832888	      6.41544941	     -5.52782421	      0.00000000
     41.53000000	     -7.70402330	      1.23332507	     -3.85934667	      0.13046605	      1.00614474	      0.00963345	      5.39633949	     -0.47495183	      5.12310918	     -1.80481268	     -3.34350882	     -7.08552878	     -2.57829184	      6.59424278	     -5.99270894	      0.00000000	     -0.43793951	     -3.31643669	     -0.81804175	     -3.06852568	      6.38712092	     -5.51564822	      0.00000000
     41.54000000	     -7.73907252	      1.23508269	     -3.84875456	      0.13034990	      1.00612813	      0.00963010	      5.40950362	     -0.47445673	      5.11948603	     -1.78193635	     -3.34530934	     -7.08618302	     -2.55707740	      6.59708329	     -5.99625848	      0.00000000	     -0.41391241	     -3.31279115	     -0.81456354	     -3.05173083	      6.38585649	     -5.51881276	      0.00000000
     41.55000000	     -7.76485306	      1.24538365	     -3.79500980	      0.13020563	      1.00601593	      0.00958497	      5.40156319	     -0.48005755	      5.07685103	     -1.72723091	     -3.35894814	     -7.05477554	     -2.58216572	      6.65045832	     -6.07263855	      0.00000000	     -0.36380797	     -3.29276432	     -0.67983548	     -3.05795951	      6.40162509	     -5.65229534	      0.00000000
     41.56000000	     -7.79773314	      1.25361136	     -3.77247723	      0.13003923	      1.00604995	      0.00955162	      5.42718597	     -0.48874072	      5.07213834	     -1.69333130	     -3.36574562	     -7.03078162	     -2.61171057	      6.62950458	     -6.07470271	      0.00000000	     -0.33930049	     -3.29108844	     -0.62976031	     -3.06134205	      6.37546024	     -5.65279623	      0.00000000
     41.57000000	     -7.82577045	      1.25389791	     -3.72693284	      0.12987811	      1.00608203	      0.00955437	      5.45396384	     -0.48924176	      5.05066913	     -1.67474896	     -3.37188700	     -6.99618568	     -2.63443081	      6.62506853	     -6.09634718	      0.00000000	     -0.31525745	     -3.28903558	     -0.54618736	     -3.07885363	      6.35445774	     -5.68564976	      0.00000000
     41.58000000	     -7.87382083	      1.26145766	     -3.72046012	      0.12966254	      1.00606034	      0.00954242	      5.51889293	     -0.48830445	      5.07162669	     -1.68519304	     -3.37420789	     -6.97466747	     -2.63284962	      6.62973293	     -6.20176466	      0.00000000	     -0.32226919	     -3.27730539	     -0.45112805	     -3.07096997	      6.33555643	     -5.82971199	      0.00000000
     41.59000000	     -7.91407175	      1.27295451	     -3.69823630	      0.12943939	      1.00603651	      0.00949052	      5.57826341	     -0.49768434	      5.06470901	     -1.68972178	     -3.37683001	     -6.96093420	     -2.64653846	      6.61207457	     -6.21934989	      0.00000000	     -0.32977130	     -3.27081597	     -0.40900101	     -3.06643914	      6.32209300	     -5.84183391	      0.00000000
     41.60000000	     -7.94779709	      1.26994896	     -3.66344948	      0.12927172	      1.00614401	      0.00950756	      5.62850100	     -0.49523636	      5.06355591	     -1.70444380	     -3.37913350	     -6.93838283	     -2.64296757	      6.58692426	     -6.24451864	      0.00000000	     -0.33001813	     -3.27368263	     -0.37058689	     -3.07011182	      6.27931480	     -5.84706711	      0.00000000
     41.61000000	     -7.97725144	      1.27270826	     -3.62310923	      0.12908130	      1.00613496	      0.00949774	      5.69526504	     -0.48661647	      5.03724242	     -1.75676592	     -3.38753156	     -6.91271159	     -2.60586364	      6.56364546	     -6.32677759	      0.00000000	     -0.37522948	     -3.25798004	     -0.33938561	     -3.04022588	      6.25919629	     -5.91016701	      0.00000000
     41.62000000	     -7.99050049	      1.27307738	     -3.61027605	      0.12890902	      1.00602458	      0.00948472	      5.70785893	     -0.48818102	      5.04601977	     -1.75437395	     -3.38530812	     -6.90680092	     -2.59870672	      6.56488420	     -6.32818770	      0.00000000	     -0.36515049	     -3.25411255	     -0.34097002	     -3.02872478	      6.26200133	     -5.91055134	      0.00000000
     41.63000000	     -8.00760651	      1.27445575	     -3.60771733	      0.12875734	      1.00604734	      0.00945289	      5.72382186	     -0.48900074	      5.04090630	     -1.74680886	     -3.38573572	     -6.90371355	     -2.58628648	      6.56641731	     -6.33219005	      0.00000000	     -0.35631189	     -3.25418411	     -0.33950827	     -3.02337649	      6.26068453	     -5.90810581	      0.00000000
     41.64000000	     -8.02466311	      1.25971663	     -3.54026276	      0.12854898	      1.00605695	      0.00947617	      5.75807903	     -0.48722282	      4.96529354	     -1.75288290	     -3.37335405	     -6.85027400	     -2.58557594	      6.51910090	     -6.42993472	      0.00000000	     -0.35658887	     -3.26883152	     -0.39912950	     -3.03770011	      6.24859366	     -5.85176648	      0.00000000
